# xmcd
#
# Track frame offsets:
#	150
#	21625
#	45377
#	64993
#	78448
#	98634
#	116379
#	130436
#	145881
#	161370
#
# Disc length: 2372 seconds
#
# Revision: 0
# Processed by: cddbd v1.5.2PL0 Copyright (c) Steve Scherf et al.
# Submitted via: EZCDAudioConverter 3.0.8.1
#
DISCID=8309420a
DTITLE=DANIEL DOMINGUEZ
DYEAR=1900
DGENRE=
TTITLE0=LA VIDA ES HOY
TTITLE1=EL BRUJO
TTITLE2=SITIO BLUES
TTITLE3=JUNTOS
TTITLE4=FERTIL
TTITLE5=CAMBIO
TTITLE6=CUANTO
TTITLE7=EN UN LUGAR UN NIÑO
TTITLE8=TIA ALICIA
TTITLE9=LA VIDA ES HOY
EXTD=
EXTT0=
EXTT1=
EXTT2=
EXTT3=
EXTT4=
EXTT5=
EXTT6=
EXTT7=
EXTT8=
EXTT9=
PLAYORDER=
